<svg width="1101" height="1077" viewBox="0 0 1101 1077" fill="none" xmlns="http://www.w3.org/2000/svg">
<path d="M114.973 956.023C114.973 943.706 322.207 933.66 577.827 933.66C833.446 933.66 1040.68 943.637 1040.68 956.023C1040.68 968.34 833.446 978.386 577.827 978.386C322.207 978.386 114.973 968.408 114.973 956.023Z" fill="#CED2F4"/>
<path d="M914.247 827.898C902.134 875.238 934.964 907.165 992.227 913.496C994.567 868.564 966.762 817.99 914.247 827.898Z" fill="#D5D7E9"/>
<path d="M594.413 643.412C626.072 582.929 591.728 529.121 516.02 502.011C498.332 562.287 519.874 639.972 594.413 643.412Z" fill="#F6F6FC"/>
<path d="M594.416 645.137C593.866 645.137 593.315 644.862 592.971 644.312C585.951 633.233 575.833 613.761 565.165 593.118C552.226 568.209 537.566 539.929 524.971 519.768C524.489 518.943 524.696 517.91 525.521 517.429C526.347 516.947 527.38 517.154 527.862 517.979C540.525 538.278 555.254 566.558 568.193 591.535C578.861 612.109 588.91 631.513 595.861 642.522C596.343 643.348 596.137 644.38 595.311 644.862C595.036 645.068 594.76 645.137 594.416 645.137Z" fill="white"/>
<path d="M591.8 709.126C599.233 688.483 600.541 631.716 555.391 615.477C534.95 608.115 529.169 607.427 521.46 611.555C516.436 614.239 513.614 619.055 508.727 617.542C499.849 614.789 510.035 581.624 478.788 568.619C447.541 555.614 433.157 575.637 424.76 572.059C416.363 568.481 417.74 554.169 401.566 553.55C385.391 552.93 383.877 579.422 363.023 581.486C341.343 583.619 306.104 595.179 308.169 615.753C310.234 636.326 326.889 633.849 336.525 644.308C346.161 654.698 349.189 695.502 381.262 692.268C413.128 689.102 424.485 683.254 442.173 719.24C459.93 755.227 499.78 760.113 516.505 749.86C533.229 739.608 532.266 750.961 524.97 759.837C517.675 768.714 535.225 771.053 547.889 764.241C560.484 757.429 582.509 734.998 591.8 709.126Z" fill="#F6F6FC"/>
<path d="M600.543 717.454C600.13 717.454 599.717 717.317 599.441 717.041C562.62 684.908 519.328 659.655 470.668 642.04C428.547 626.765 385.187 618.37 345.268 617.613C344.304 617.613 343.547 616.788 343.547 615.893C343.547 614.93 344.304 614.173 345.268 614.173C385.531 614.861 429.304 623.393 471.769 638.806C520.773 656.559 564.478 682.018 601.575 714.496C602.263 715.115 602.332 716.216 601.713 716.904C601.506 717.248 601.024 717.454 600.543 717.454Z" fill="#BDC0DA"/>
<path d="M405.624 624.08C404.936 624.08 404.316 623.667 404.041 622.979C402.114 618.025 396.746 596.694 398.673 583.552C398.81 582.589 399.705 581.969 400.6 582.107C401.563 582.245 402.183 583.139 402.045 584.034C400.256 596.35 405.349 617.13 407.207 621.741C407.551 622.635 407.138 623.598 406.244 623.942C406.037 624.011 405.831 624.08 405.624 624.08Z" fill="#BDC0DA"/>
<path d="M368.462 645.405C368.187 645.405 367.843 645.336 367.567 645.198C366.742 644.717 366.466 643.685 366.948 642.859C369.908 637.836 382.09 622.973 388.766 618.294C389.523 617.744 390.624 617.95 391.175 618.707C391.725 619.464 391.519 620.565 390.762 621.116C384.567 625.45 372.661 639.9 369.908 644.579C369.632 645.061 369.013 645.405 368.462 645.405Z" fill="#BDC0DA"/>
<path d="M470.873 641.967C470.254 641.967 469.634 641.623 469.359 641.004C466.881 635.981 459.379 620.568 463.233 595.865C463.371 594.902 464.266 594.283 465.229 594.42C466.193 594.558 466.812 595.453 466.675 596.416C463.371 617.609 468.395 631.164 472.525 639.559C472.938 640.384 472.594 641.417 471.768 641.829C471.355 641.898 471.079 641.967 470.873 641.967Z" fill="#BDC0DA"/>
<path d="M414.917 662.124C414.504 662.124 414.16 661.986 413.816 661.711C413.059 661.092 412.99 659.991 413.61 659.303C420.423 650.977 438.043 633.224 445.132 630.403C446.026 630.059 446.99 630.472 447.334 631.366C447.678 632.261 447.265 633.224 446.371 633.568C440.039 636.114 423.039 653.179 416.225 661.436C415.881 661.917 415.399 662.124 414.917 662.124Z" fill="#BDC0DA"/>
<path d="M496.613 685.657C496.2 685.657 495.855 685.519 495.511 685.244C494.754 684.625 494.685 683.524 495.305 682.836C496.2 681.735 497.232 680.496 498.264 679.189C503.633 672.377 510.309 663.844 518.706 659.716C519.532 659.303 520.564 659.647 520.977 660.473C521.39 661.299 521.046 662.331 520.22 662.744C512.511 666.528 506.11 674.647 500.949 681.253C499.916 682.56 498.953 683.799 497.989 684.969C497.576 685.45 497.094 685.657 496.613 685.657Z" fill="#BDC0DA"/>
<path d="M545.48 677.395C544.929 677.395 544.379 677.12 544.035 676.638C538.253 668.037 533.78 648.702 534.055 633.564C534.055 632.601 534.881 631.913 535.776 631.844C536.739 631.844 537.496 632.669 537.496 633.564C537.29 648.083 541.488 666.592 546.925 674.711C547.476 675.468 547.27 676.569 546.444 677.12C546.1 677.326 545.824 677.395 545.48 677.395Z" fill="#BDC0DA"/>
<path d="M594.075 729.433C500.884 694.616 429.237 754.067 403.84 868.426C494.208 883.083 602.678 837.876 594.075 729.433Z" fill="#D5D7E9"/>
<path d="M426.35 852.057C425.868 852.057 425.387 851.85 425.042 851.438C424.423 850.681 424.561 849.649 425.318 849.029C452.297 827.011 490.633 800.657 524.358 777.4C552.164 758.271 578.455 740.174 593.046 728.133C593.803 727.513 594.836 727.651 595.455 728.339C596.075 729.096 595.937 730.128 595.249 730.748C580.52 742.858 554.229 760.954 526.354 780.152C492.629 803.34 454.431 829.694 427.52 851.575C427.107 851.919 426.694 852.057 426.35 852.057Z" fill="white"/>
<path d="M903.926 779.657C921.476 864.361 998.424 889.476 1094.37 855.209C1063.19 781.928 979.703 723.166 903.926 779.657Z" fill="#F6F6FC"/>
<path d="M1070.56 848.811C1070.35 848.811 1070.21 848.811 1070.01 848.742C1041.3 839.04 1004.21 823.145 971.446 809.04C944.467 797.48 919.001 786.47 903.378 781.31C902.483 781.035 902.001 780.002 902.277 779.108C902.552 778.213 903.515 777.732 904.479 778.007C920.24 783.236 945.774 794.246 972.823 805.806C1005.52 819.843 1042.54 835.737 1071.18 845.37C1072.07 845.646 1072.55 846.678 1072.28 847.572C1072 848.329 1071.31 848.811 1070.56 848.811Z" fill="white"/>
<path d="M1081.43 622.982C1100.7 640.046 1116.8 692.478 1071.1 728.121C1025.4 763.764 914.316 811.861 890.778 787.159C872.057 767.548 935.515 646.445 969.102 617.408C1002.69 588.44 1049.15 594.426 1081.43 622.982Z" fill="#F6F6FC"/>
<path d="M890.712 788.884C890.299 788.884 889.817 788.747 889.473 788.403C888.785 787.715 888.785 786.614 889.473 785.994C911.842 763.769 1030.98 659.249 1062.98 637.919C1063.74 637.368 1064.84 637.574 1065.39 638.4C1065.94 639.157 1065.74 640.258 1064.91 640.808C1033.04 662.001 914.319 766.246 891.951 788.403C891.607 788.747 891.194 788.884 890.712 788.884Z" fill="white"/>
<path d="M1001.52 744.29C1000.69 748.487 995.667 750.964 990.367 749.932C985.067 748.831 981.42 744.634 982.246 740.437C983.071 736.239 988.096 733.762 993.395 734.794C998.764 735.895 1002.34 740.161 1001.52 744.29Z" fill="white"/>
<path d="M978.53 684.218C979.149 687.865 975.364 691.58 969.995 692.544C964.627 693.507 959.809 691.305 959.121 687.658C958.502 684.011 962.287 680.296 967.655 679.332C973.024 678.438 977.842 680.571 978.53 684.218Z" fill="white"/>
<path d="M962.7 761.016C963.113 763.287 960.704 765.558 957.4 766.177C954.097 766.796 951.068 765.42 950.655 763.149C950.243 760.879 952.651 758.608 955.955 757.989C959.259 757.438 962.287 758.814 962.7 761.016Z" fill="white"/>
<path d="M945.973 686.151C947.763 687.871 947.143 691.449 944.528 694.064C941.913 696.678 938.402 697.435 936.613 695.646C934.824 693.926 935.443 690.348 938.058 687.733C940.674 685.119 944.184 684.431 945.973 686.151Z" fill="white"/>
<path d="M1024.09 722.817C1024.37 724.4 1022.79 725.983 1020.45 726.395C1018.18 726.808 1016.11 725.914 1015.84 724.331C1015.56 722.817 1017.14 721.166 1019.48 720.753C1021.75 720.34 1023.82 721.304 1024.09 722.817Z" fill="white"/>
<path d="M958.364 661.301C960.016 662.195 960.222 664.879 958.846 667.287C957.469 669.695 955.06 670.865 953.477 669.971C951.825 669.076 951.619 666.393 952.995 663.984C954.303 661.576 956.712 660.406 958.364 661.301Z" fill="white"/>
<path d="M984.52 759.905C986.172 760.799 986.378 763.483 985.002 765.891C983.625 768.3 981.216 769.469 979.633 768.575C977.982 767.68 977.775 764.997 979.152 762.588C980.459 760.18 982.868 758.942 984.52 759.905Z" fill="white"/>
<path d="M698.688 764.656C702.06 819.153 747.898 841.791 810.942 828.992C798.072 780.413 751.202 736.101 698.688 764.656Z" fill="#D5D7E9"/>
<path d="M697.242 761.911C761.732 790.398 814.866 751.246 837.578 671.359C774.258 657.322 695.659 684.845 697.242 761.911Z" fill="#F6F6FC"/>
<path d="M697.243 763.623C696.692 763.623 696.21 763.347 695.866 762.934C695.316 762.178 695.453 761.077 696.21 760.526C707.154 752.544 726.562 740.778 747.073 728.324C771.85 713.324 799.931 696.259 819.89 681.878C820.647 681.328 821.749 681.465 822.299 682.291C822.85 683.048 822.712 684.149 821.886 684.699C801.858 699.149 773.708 716.214 748.862 731.283C728.421 743.668 709.081 755.434 698.206 763.278C698 763.485 697.656 763.623 697.243 763.623Z" fill="#D5D7E9"/>
<path d="M440.588 125.771C484.843 140.083 517.054 110.84 526.552 56.894C484.017 52.0086 434.325 75.3347 440.588 125.771Z" fill="#F6F6FC"/>
<path d="M439.418 126.457C476.859 89.4383 464.195 41.8228 414.847 4.18457C387.798 44.3687 385.458 106.503 439.418 126.457Z" fill="#D5D7E9"/>
<path d="M439.417 128.181C438.66 128.181 437.971 127.7 437.765 126.874C435.218 117.034 432.328 100.383 429.299 82.699C425.651 61.3684 421.453 37.2166 416.911 19.464C416.704 18.5695 417.255 17.6062 418.149 17.3998C419.044 17.1934 420.008 17.7438 420.214 18.6383C424.825 36.5285 428.955 60.7491 432.672 82.1485C435.7 99.7635 438.591 116.415 441.068 126.048C441.275 126.943 440.724 127.906 439.83 128.181C439.692 128.181 439.554 128.181 439.417 128.181Z" fill="white"/>
<path d="M140.306 563.327C118.351 563.327 111.124 543.923 107.82 532.02C114.565 532.57 141.614 536.217 140.306 563.327Z" fill="#F6F6FC"/>
<path d="M256.414 720.492C255.726 720.492 255.038 720.079 254.832 719.391C246.022 696.272 231.155 669.574 212.985 644.184C191.374 614.046 165.151 585.972 137.277 562.99C136.52 562.37 136.451 561.27 137.07 560.581C137.69 559.825 138.791 559.756 139.479 560.375C167.629 583.564 194.058 611.844 215.807 642.257C234.184 667.854 249.188 694.827 258.066 718.222C258.41 719.116 257.929 720.079 257.103 720.423C256.827 720.423 256.621 720.492 256.414 720.492Z" fill="#F6F6FC"/>
<path d="M252.973 687.112C254.349 642.799 286.216 636.263 310.373 630.276C308.928 643.832 307.62 691.378 252.973 687.112Z" fill="#F6F6FC"/>
<path d="M233.22 649.476C225.443 614.728 248.912 603.306 266.532 593.879C268.115 604.682 276.58 641.838 233.22 649.476Z" fill="#F6F6FC"/>
<path d="M204.108 613.561C190.618 586.106 207.962 571.794 220.695 560.372C224.205 569.111 238.796 598.492 204.108 613.561Z" fill="#F6F6FC"/>
<path d="M173.136 581.22C160.335 567.183 168.181 555.623 173.825 546.609C177.472 551.22 191.238 566.22 173.136 581.22Z" fill="#F6F6FC"/>
<path d="M230.95 694.2C201.63 668.328 178.16 684.911 159.715 696.815C169.282 704.108 200.666 731.976 230.95 694.2Z" fill="#F6F6FC"/>
<path d="M208.72 653.68C187.247 627.67 164.947 638.68 147.672 646.317C154.899 653.818 177.886 681.823 208.72 653.68Z" fill="#F6F6FC"/>
<path d="M175.406 609.979C156.341 596.974 143.815 608.396 133.973 616.722C140.098 620.231 160.471 634.2 175.406 609.979Z" fill="#F6F6FC"/>
<path d="M150.906 582.047C141.408 572.551 133.011 577.781 126.473 581.496C129.57 584.18 139.756 594.364 150.906 582.047Z" fill="#F6F6FC"/>
<path d="M240.446 817.098C267.082 763.771 236.179 717.395 169.624 695.101C155.24 747.945 175.337 815.309 240.446 817.098Z" fill="#F6F6FC"/>
<path d="M240.446 818.82C239.896 818.82 239.345 818.545 239.001 818.063C232.669 808.499 223.515 791.641 213.811 773.82C202.11 752.282 188.896 727.924 177.54 710.585C176.989 709.759 177.264 708.727 178.021 708.176C178.847 707.626 179.88 707.901 180.43 708.658C191.855 726.135 205.139 750.562 216.839 772.168C226.475 789.921 235.629 806.71 241.823 816.206C242.374 817.031 242.098 818.063 241.341 818.614C241.135 818.683 240.791 818.82 240.446 818.82Z" fill="white"/>
<path d="M238.105 886.166C255.036 875.019 296.744 793.069 263.983 777.243C232.874 762.174 223.032 826.303 221.174 834.629C214.704 803.183 206.238 772.632 185.453 778.206C164.736 783.779 185.453 828.161 185.453 828.161C166.526 804.078 119.449 767.059 98.0441 778.206C76.6393 789.353 141.611 829.193 141.611 829.193C112.085 812.473 23.8498 789.903 111.947 832.496C71.615 819.422 -7.05297 813.023 80.3559 840.271C27.7041 835.73 0.999655 842.886 0.0360928 850.248C-0.858643 857.68 14.5584 868.139 82.5583 869.859C48.9713 875.432 32.1089 883.276 40.781 886.304C54.5462 886.166 238.105 886.166 238.105 886.166Z" fill="#D5D7E9"/>
<path d="M125.369 846.6C125.369 845.086 124.13 843.848 122.616 843.848C121.102 843.848 119.863 845.086 119.863 846.6C119.863 848.114 121.102 849.352 122.616 849.352C124.13 849.352 125.369 848.114 125.369 846.6Z" fill="white"/>
<path d="M219.178 862.705C219.178 860.366 217.32 858.508 214.98 858.508C212.64 858.508 210.781 860.366 210.781 862.705C210.781 865.045 212.64 866.902 214.98 866.902C217.32 866.902 219.178 865.045 219.178 862.705Z" fill="white"/>
<path d="M164.392 831.531C164.392 829.536 162.809 827.953 160.813 827.953C158.817 827.953 157.234 829.536 157.234 831.531C157.234 833.527 158.817 835.109 160.813 835.109C162.809 835.109 164.392 833.527 164.392 831.531Z" fill="white"/>
<path d="M100.727 145.802L144.156 241.514C194.123 215.161 251.111 200.298 311.471 200.298C371.9 200.298 428.819 215.23 478.787 241.514L522.216 145.802C458.965 113.531 387.317 95.3652 311.471 95.3652C235.625 95.3652 163.978 113.599 100.727 145.802Z" fill="#F6F6FC"/>
<path d="M175.955 315.067C174.648 315.067 173.409 314.31 172.789 313.071L93.2267 137.61C92.4697 135.89 93.2268 133.825 94.9474 133.068C96.668 132.312 98.7328 133.068 99.4899 134.789L179.053 310.25C179.81 311.97 179.053 314.035 177.332 314.792C176.919 314.998 176.437 315.067 175.955 315.067Z" fill="#BDC0DA"/>
<path d="M447.057 315.067C446.575 315.067 446.093 314.998 445.611 314.792C443.891 314.035 443.134 311.97 443.891 310.25L523.453 134.789C524.211 133.068 526.275 132.312 527.996 133.068C529.717 133.825 530.474 135.89 529.717 137.61L450.154 313.071C449.603 314.379 448.364 315.067 447.057 315.067Z" fill="#BDC0DA"/>
<path d="M307.89 167.273L293.712 174.773C292.335 175.53 290.683 174.36 290.959 172.777L293.643 157.02C293.781 156.401 293.574 155.782 293.092 155.369L281.598 144.153C280.497 143.052 281.117 141.194 282.631 140.919L298.461 138.648C299.08 138.58 299.631 138.167 299.906 137.616L306.995 123.235C307.683 121.859 309.679 121.859 310.368 123.235L317.457 137.616C317.732 138.167 318.283 138.58 318.902 138.648L334.732 140.919C336.246 141.125 336.866 143.052 335.764 144.153L324.27 155.369C323.857 155.782 323.651 156.401 323.72 157.02L326.404 172.777C326.679 174.291 325.028 175.461 323.651 174.773L309.473 167.341C309.129 166.997 308.44 166.997 307.89 167.273Z" fill="#D5D7E9"/>
<path d="M247.943 173.674L235.761 184.064C234.591 185.096 232.733 184.271 232.664 182.757L231.838 166.793C231.838 166.174 231.494 165.624 230.943 165.28L217.316 156.816C216.008 155.99 216.146 153.995 217.66 153.444L232.664 147.733C233.214 147.527 233.696 147.045 233.834 146.426L237.619 130.875C237.963 129.362 239.959 128.949 240.923 130.118L250.972 142.573C251.385 143.054 251.935 143.33 252.555 143.261L268.522 142.022C270.105 141.885 271.069 143.605 270.243 144.912L261.502 158.33C261.158 158.88 261.089 159.5 261.364 160.05L267.421 174.844C268.04 176.289 266.664 177.803 265.218 177.39L249.733 173.193C249.044 173.124 248.425 173.261 247.943 173.674Z" fill="#D5D7E9"/>
<path d="M184.627 192.664L173.89 204.567C172.858 205.737 170.931 205.187 170.655 203.673L167.765 187.916C167.627 187.297 167.214 186.815 166.663 186.54L152.003 180.003C150.558 179.384 150.489 177.388 151.866 176.631L165.975 168.994C166.526 168.718 166.87 168.168 166.939 167.549L168.659 151.654C168.797 150.071 170.724 149.383 171.825 150.484L183.457 161.493C183.939 161.906 184.558 162.113 185.177 161.975L200.87 158.672C202.384 158.328 203.623 159.911 202.935 161.356L196.052 175.806C195.777 176.356 195.777 177.044 196.121 177.526L204.105 191.425C204.862 192.801 203.76 194.453 202.246 194.246L186.348 192.182C185.659 191.976 185.04 192.251 184.627 192.664Z" fill="#D5D7E9"/>
<path d="M367.906 173.329L352.42 177.457C350.906 177.87 349.598 176.356 350.218 174.911L356.343 160.118C356.55 159.567 356.55 158.879 356.206 158.397L347.396 144.911C346.57 143.604 347.534 141.883 349.117 142.021L365.084 143.26C365.704 143.328 366.323 143.053 366.667 142.571L376.716 130.117C377.679 128.879 379.675 129.36 380.019 130.874L383.805 146.425C383.942 147.044 384.355 147.526 384.975 147.732L399.91 153.443C401.355 153.994 401.562 155.989 400.254 156.815L386.627 165.209C386.076 165.553 385.732 166.104 385.732 166.723L384.906 182.687C384.837 184.269 382.979 185.026 381.809 183.994L369.627 173.604C369.145 173.26 368.457 173.122 367.906 173.329Z" fill="#D5D7E9"/>
<path d="M431.23 192.043L415.331 194.107C413.817 194.314 412.647 192.662 413.472 191.286L421.525 177.387C421.869 176.836 421.869 176.217 421.594 175.666L414.711 161.217C414.023 159.84 415.262 158.258 416.776 158.533L432.468 161.905C433.088 162.042 433.707 161.836 434.189 161.423L445.821 150.414C446.922 149.313 448.849 150.001 448.987 151.583L450.638 167.547C450.707 168.166 451.051 168.717 451.602 168.992L465.642 176.63C467.019 177.387 466.95 179.382 465.505 180.001L450.845 186.538C450.294 186.813 449.881 187.295 449.744 187.914L446.784 203.671C446.509 205.185 444.582 205.736 443.549 204.566L432.812 192.662C432.468 192.18 431.849 191.974 431.23 192.043Z" fill="#D5D7E9"/>
<path d="M306.308 164.523L292.13 171.954C290.753 172.711 289.101 171.542 289.377 169.959L292.061 154.202C292.199 153.583 291.992 152.963 291.51 152.55L280.016 141.335C278.915 140.234 279.535 138.376 281.049 138.101L296.879 135.83C297.498 135.761 298.049 135.348 298.324 134.798L305.413 120.417C306.101 119.041 308.097 119.041 308.786 120.417L315.875 134.798C316.15 135.348 316.701 135.761 317.32 135.83L333.15 138.101C334.664 138.307 335.284 140.234 334.182 141.335L322.688 152.55C322.275 152.963 322.069 153.583 322.138 154.202L324.822 169.959C325.097 171.473 323.446 172.643 322.069 171.954L307.891 164.523C307.478 164.248 306.858 164.248 306.308 164.523Z" fill="#FF9F84"/>
<path d="M334.25 141.405C335.351 140.304 334.732 138.446 333.218 138.171L317.388 135.9C316.768 135.831 316.218 135.419 315.943 134.868L308.853 120.487C308.509 119.799 307.821 119.455 307.133 119.455C308.234 119.937 308.509 122.827 308.509 124.134C308.509 125.441 308.509 143.538 308.509 146.772C308.509 160.052 308.303 163.011 307.202 164.318C307.477 164.318 307.752 164.387 308.028 164.525L322.206 171.956C323.582 172.713 325.234 171.543 324.959 169.96L322.275 154.203C322.137 153.584 322.343 152.965 322.825 152.552L334.25 141.405Z" fill="#F05023"/>
<path d="M246.295 170.918L234.113 181.308C232.943 182.34 231.084 181.514 231.015 180.001L230.19 164.037C230.19 163.418 229.845 162.867 229.295 162.523L215.667 154.129C214.36 153.303 214.497 151.307 216.011 150.757L231.015 145.046C231.566 144.839 232.048 144.358 232.185 143.739L235.971 128.188C236.315 126.674 238.311 126.261 239.275 127.431L249.323 139.885C249.736 140.367 250.287 140.642 250.906 140.573L266.874 139.335C268.457 139.197 269.42 140.917 268.594 142.225L259.853 155.642C259.509 156.193 259.441 156.812 259.716 157.363L265.773 172.156C266.392 173.601 265.015 175.115 263.57 174.702L248.084 170.505C247.396 170.436 246.777 170.574 246.295 170.918Z" fill="#FF9F84"/>
<path d="M268.522 142.224C269.348 140.916 268.384 139.196 266.801 139.334L250.834 140.572C250.214 140.641 249.595 140.366 249.251 139.884L239.202 127.43C238.72 126.811 237.963 126.604 237.344 126.742C238.514 127.017 239.409 129.769 239.684 131.008C239.959 132.315 243.882 149.93 244.639 153.096C247.53 166.1 247.943 168.99 247.186 170.504C247.461 170.435 247.736 170.435 248.081 170.504L263.566 174.701C265.081 175.114 266.388 173.6 265.769 172.155L259.712 157.362C259.506 156.811 259.506 156.123 259.85 155.641L268.522 142.224Z" fill="#F05023"/>
<path d="M182.975 189.908L172.238 201.812C171.205 202.981 169.278 202.431 169.003 200.917L166.112 185.16C165.975 184.541 165.562 184.059 165.011 183.784L150.351 177.247C148.906 176.628 148.837 174.632 150.213 173.875L164.323 166.238C164.873 165.962 165.217 165.412 165.286 164.793L167.007 148.898C167.145 147.315 169.072 146.627 170.173 147.728L181.805 158.738C182.286 159.15 182.906 159.357 183.525 159.219L199.217 155.916C200.732 155.572 201.971 157.155 201.282 158.6L194.4 173.05C194.124 173.6 194.124 174.288 194.468 174.77L202.452 188.669C203.209 190.045 202.108 191.697 200.594 191.49L184.695 189.426C184.007 189.288 183.388 189.495 182.975 189.908Z" fill="#FF9F84"/>
<path d="M201.283 158.535C201.971 157.159 200.732 155.576 199.218 155.852L183.525 159.154C182.906 159.292 182.287 159.086 181.805 158.673L170.173 147.663C169.623 147.113 168.866 147.044 168.246 147.251C169.485 147.319 170.655 149.934 171.137 151.173C171.619 152.411 177.813 169.338 178.983 172.434C183.594 184.889 184.351 187.71 183.801 189.361C184.076 189.293 184.351 189.224 184.695 189.293L200.594 191.357C202.108 191.563 203.278 189.912 202.453 188.536L194.469 174.636C194.193 174.086 194.125 173.467 194.4 172.916L201.283 158.535Z" fill="#F05023"/>
<path d="M366.262 170.579L350.776 174.707C349.262 175.12 347.954 173.606 348.573 172.161L354.699 157.368C354.905 156.817 354.905 156.129 354.561 155.647L345.751 142.161C344.926 140.854 345.889 139.133 347.472 139.271L363.44 140.51C364.059 140.578 364.679 140.303 365.023 139.821L375.071 127.367C376.035 126.129 378.031 126.61 378.375 128.124L382.16 143.675C382.298 144.294 382.711 144.776 383.33 144.982L398.266 150.693C399.711 151.244 399.917 153.239 398.61 154.065L384.982 162.459C384.432 162.803 384.087 163.354 384.087 163.973L383.262 179.937C383.193 181.519 381.334 182.276 380.164 181.244L367.982 170.854C367.5 170.51 366.812 170.372 366.262 170.579Z" fill="#FF9F84"/>
<path d="M398.608 154.135C399.916 153.31 399.778 151.314 398.264 150.764L383.329 145.053C382.778 144.846 382.296 144.364 382.159 143.745L378.373 128.195C378.167 127.438 377.616 126.956 376.928 126.818C377.892 127.575 377.479 130.396 377.203 131.704C376.928 133.011 372.936 150.626 372.248 153.791C369.357 166.727 368.462 169.548 367.086 170.649C367.361 170.718 367.637 170.856 367.843 171.062L380.025 181.452C381.195 182.484 383.054 181.659 383.122 180.145L383.948 164.181C383.948 163.562 384.292 163.012 384.843 162.668L398.608 154.135Z" fill="#F05023"/>
<path d="M429.64 189.295L413.741 191.359C412.227 191.565 411.057 189.914 411.883 188.538L419.935 174.639C420.279 174.088 420.279 173.469 420.004 172.918L413.121 158.469C412.433 157.092 413.672 155.51 415.186 155.785L430.879 159.157C431.498 159.294 432.117 159.088 432.599 158.675L444.231 147.666C445.332 146.565 447.259 147.253 447.397 148.835L449.049 164.799C449.117 165.418 449.461 165.969 450.012 166.244L464.053 173.882C465.429 174.639 465.36 176.634 463.915 177.253L449.255 183.79C448.704 184.065 448.291 184.547 448.154 185.166L445.194 200.923C444.919 202.437 442.992 202.988 441.96 201.818L431.223 189.914C430.81 189.432 430.19 189.226 429.64 189.295Z" fill="#FF9F84"/>
<path d="M463.916 177.314C465.361 176.695 465.43 174.7 464.053 173.943L449.944 166.236C449.393 165.961 449.049 165.411 448.98 164.791L447.329 148.828C447.26 148.071 446.709 147.52 446.09 147.245C446.985 148.071 446.159 150.892 445.746 152.131C445.264 153.369 439.001 170.296 437.9 173.392C433.288 185.847 432.049 188.53 430.535 189.425C430.81 189.562 431.086 189.7 431.223 189.906L441.96 201.81C442.993 202.98 444.92 202.43 445.195 200.916L448.155 185.159C448.292 184.539 448.705 184.058 449.256 183.782L463.916 177.314Z" fill="#F05023"/>
<path d="M245.608 598.173C244.713 614.068 230.535 840.035 230.535 925.976C235.766 925.976 245.815 925.976 245.815 925.976C254.349 904.646 326.685 638.701 332.466 598.173C320.903 598.173 245.608 598.173 245.608 598.173Z" fill="#232D82"/>
<path d="M245.816 931.546C245.816 928.45 245.816 925.973 245.816 925.973H230.537C230.331 931.202 229.367 933.954 228.816 936.088C232.808 937.601 238.59 933.679 245.816 931.546Z" fill="#FFCEC0"/>
<path d="M245.815 931.55C238.588 933.683 232.806 937.605 228.815 936.091C226.681 937.605 195.778 948.752 192.612 950.885C189.377 953.087 189.859 956.527 193.3 956.527C198.256 956.527 239.345 954.738 239.345 954.738C240.171 955.633 240.859 956.527 240.859 956.527H250.219C253.041 951.642 252.284 937.123 245.815 931.55Z" fill="#232D82"/>
<path d="M371.831 598.173C372.726 614.068 386.904 840.035 386.904 925.976C381.673 925.976 371.624 925.976 371.624 925.976C363.09 904.646 290.754 638.701 284.973 598.173C296.535 598.173 371.831 598.173 371.831 598.173Z" fill="url(#paint0_radial_14_670)"/>
<path d="M371.625 931.546C371.625 928.45 371.625 925.973 371.625 925.973H386.904C387.111 931.202 388.074 933.954 388.625 936.088C384.702 937.601 378.852 933.679 371.625 931.546Z" fill="#FFCEC0"/>
<path d="M371.622 931.55C378.848 933.683 384.63 937.605 388.622 936.091C390.755 937.605 421.658 948.752 424.824 950.885C428.059 953.087 427.577 956.527 424.136 956.527C419.18 956.527 378.091 954.738 378.091 954.738C377.265 955.633 376.577 956.527 376.577 956.527H367.217C364.395 951.642 365.152 937.123 371.622 931.55Z" fill="#232D82"/>
<path d="M279.953 439.229C269.698 437.096 214.981 421.683 188.621 324.112C183.459 325.901 178.848 331.612 178.848 331.612C181.807 371.659 202.593 453.61 275.135 499.849C280.022 480.927 279.953 439.229 279.953 439.229Z" fill="#F6F6FC"/>
<path d="M183.94 331.13C181.807 331.68 179.26 332.231 173.961 330.442C168.661 328.652 167.078 308.354 170.795 308.216C173.892 308.079 174.924 309.317 174.924 309.317C174.855 307.872 175.062 303.744 182.013 310.074C189.24 316.611 188.689 324.042 188.689 324.042C188.689 324.042 185.73 328.584 183.94 331.13Z" fill="#FFCEC0"/>
<path d="M349.332 438.403C360.688 435.72 408.109 421.683 434.401 324.112C439.563 325.901 444.174 331.612 444.174 331.612C441.214 371.659 420.429 453.61 347.887 499.849C343 480.927 349.332 438.403 349.332 438.403Z" fill="#F6F6FC"/>
<path d="M439.149 331.13C441.283 331.68 443.829 332.231 449.129 330.442C454.429 328.652 456.012 308.354 452.295 308.216C449.198 308.079 448.165 309.317 448.165 309.317C448.234 307.872 448.028 303.744 441.076 310.074C433.85 316.611 434.4 324.042 434.4 324.042C434.4 324.042 437.36 328.584 439.149 331.13Z" fill="#FFCEC0"/>
<path d="M369.63 483.68L349.327 438.404C321.383 441.914 293.853 440.4 280.019 439.23C243.404 482.442 242.165 574.095 243.266 598.178C243.266 598.178 365.914 598.178 375.343 598.178C381.4 543.888 374.517 511.892 369.63 483.68Z" fill="#F6F6FC"/>
<path d="M297.985 440.329C284.495 453.402 309.479 461.04 331.572 440.122C323.588 440.122 297.985 440.329 297.985 440.329Z" fill="#F1F2F2"/>
<path d="M298.67 443.209C300.528 436.466 299.978 432.131 299.978 432.131C295.848 432.269 284.836 431.994 286.763 419.677C288.69 407.36 291.168 383.896 297.5 377.979C305.966 369.997 333.014 365.593 334.047 389.332C335.148 413.14 326.958 419.402 326.682 424.081C326.407 428.76 326.751 436.466 327.233 440.251C322.484 445.618 296.124 453.875 298.67 443.209Z" fill="#FFCEC0"/>
<path d="M326.543 429.521C324.478 430.759 322.413 424.773 325.923 416.103C329.434 407.433 320.83 412.112 323.927 403.924C327.025 395.736 330.81 388.098 326.818 384.795C322.826 381.493 298.6 383.97 292.199 377.295C285.798 370.621 289.17 369.52 293.713 372.272C290.685 368.281 282.907 352.455 292.612 358.992C290.685 354.176 297.911 343.166 305.62 358.029C313.259 372.96 324.478 369.245 324.478 369.245C321.312 366.63 319.316 354.451 330.535 366.768C341.753 379.084 345.47 384.589 339.826 393.809C334.114 402.961 330.948 426.906 326.543 429.521Z" fill="#232D82"/>
<path d="M188.548 346.539C187.241 346.539 186.002 345.782 185.382 344.544L176.848 325.484C176.091 323.764 176.848 321.699 178.568 320.942C180.289 320.186 182.354 320.942 183.111 322.663L191.714 341.654C192.471 343.374 191.714 345.438 189.994 346.195C189.512 346.402 189.03 346.539 188.548 346.539Z" fill="#BDC0DA"/>
<path d="M434.471 346.533C433.989 346.533 433.507 346.464 433.026 346.258C431.305 345.501 430.548 343.437 431.305 341.716L439.908 322.725C440.665 321.005 442.73 320.248 444.451 321.005C446.171 321.762 446.928 323.826 446.171 325.546L437.568 344.537C437.017 345.776 435.779 346.533 434.471 346.533Z" fill="#BDC0DA"/>
<path d="M524.561 322.159C522.702 312.388 530.962 307.365 531.374 297.663C531.856 288.03 531.994 286.585 529.86 287.136C527.658 287.686 526.419 299.727 525.18 298.214C523.115 295.599 529.791 271.929 526.763 270.14C524.698 268.901 521.257 283.902 520.5 291.058C516.99 285.966 526.763 265.048 523.184 264.842C520.775 264.704 513.755 283.489 515.476 290.645C512.103 285.966 519.812 267.525 516.852 266.355C514.443 265.392 508.662 282.869 510.038 289.475C507.767 284.658 510.727 275.3 508.524 275.232C505.84 275.163 503.775 291.195 504.877 304.2C505.771 314.452 509.144 313.558 510.658 319.957C517.403 322.641 524.561 322.159 524.561 322.159Z" fill="#FFCEC0"/>
<path d="M704.679 600.963C705.574 616.72 719.615 840.692 719.615 925.876C714.453 925.876 704.473 925.876 704.473 925.876C696.007 904.752 624.291 641.147 618.578 600.963C630.072 600.963 704.679 600.963 704.679 600.963Z" fill="#232D82"/>
<path d="M704.543 931.448C704.543 928.42 704.543 925.943 704.543 925.943H719.685C719.891 931.104 720.855 933.856 721.405 935.989C717.413 937.434 711.701 933.581 704.543 931.448Z" fill="#FFCEC0"/>
<path d="M704.54 931.441C711.698 933.574 717.479 937.497 721.402 935.983C723.467 937.497 754.163 948.506 757.26 950.639C760.426 952.841 760.013 956.212 756.572 956.212C751.617 956.212 710.94 954.423 710.94 954.423C710.115 955.318 709.426 956.212 709.426 956.212H700.135C697.313 951.396 698.07 936.946 704.54 931.441Z" fill="#232D82"/>
<path d="M579.619 600.963C578.724 616.72 564.684 840.692 564.684 925.876C569.846 925.876 579.825 925.876 579.825 925.876C588.291 904.752 660.007 641.147 665.72 600.963C654.226 600.963 579.619 600.963 579.619 600.963Z" fill="url(#paint1_radial_14_670)"/>
<path d="M579.761 931.448C579.761 928.42 579.761 925.943 579.761 925.943H564.619C564.413 931.104 563.449 933.856 562.898 935.989C566.89 937.434 572.603 933.581 579.761 931.448Z" fill="#FFCEC0"/>
<path d="M579.758 931.441C572.6 933.574 566.819 937.497 562.896 935.983C560.831 937.497 530.135 948.506 527.037 950.639C523.871 952.841 524.284 956.212 527.726 956.212C532.681 956.212 573.357 954.423 573.357 954.423C574.183 955.318 574.871 956.212 574.871 956.212H584.163C586.985 951.396 586.228 936.946 579.758 931.441Z" fill="#232D82"/>
<g opacity="0.98">
<path d="M679.008 438.315C704.198 428.681 747.077 395.309 749.485 382.786C752.583 366.341 757.607 340.675 759.534 297.877C764.971 297.739 779.631 298.427 779.631 298.427C786.307 320.79 785.963 379.139 782.178 403.291C779.562 419.668 732.83 475.127 705.988 505.265C690.708 493.293 679.008 438.315 679.008 438.315Z" fill="#D70F82"/>
<path d="M612.59 437.149C586.092 429.443 537.708 410.245 534.198 397.928C529.173 380.382 530.963 361.116 528.416 319.349C522.979 319.005 507.7 319.349 507.7 319.349C504.534 346.047 502.262 381.827 503.364 414.442C503.914 431.025 552.23 477.058 576.938 499.352C588.708 483.87 612.59 437.149 612.59 437.149Z" fill="url(#paint2_linear_14_670)"/>
<path d="M582.378 448.021C599.516 430.888 677.22 432.402 698.074 444.375C718.928 456.347 695.803 535.477 707.09 601.051C707.09 601.051 585.544 601.051 576.184 601.051C585.819 541.257 567.58 462.746 582.378 448.021Z" fill="url(#paint3_linear_14_670)"/>
<path d="M627.867 435.626C640.669 434.869 654.228 435.213 666.272 436.52C678.936 452.208 649.479 462.186 627.867 435.626Z" fill="#D70F82"/>
</g>
<path d="M631.79 412.295C632.891 416.974 635.782 429.085 634.337 435.346C640.806 448.489 670.057 448.695 662.005 438.443C659.802 435.621 659.045 429.704 659.802 427.846C662.418 421.516 666.478 429.222 670.057 419.107C674.256 407.272 673.567 384.91 667.58 379.267C660.903 372.937 648.102 365.781 633.029 376.859C620.778 385.942 629.588 402.731 631.79 412.295Z" fill="#FFCEC0"/>
<path d="M642.803 400.121C646.45 399.777 643.628 390.419 646.037 387.873C648.928 384.845 659.321 382.162 669.713 382.23C680.106 382.299 685.13 368.262 677.973 363.377C670.815 358.491 665.653 366.817 660.56 365.647C654.641 364.34 654.916 357.253 646.519 358.904C638.742 360.418 643.078 367.299 638.26 369.088C633.305 370.946 625.045 364.959 619.608 373.629C615.616 380.097 622.912 382.85 622.912 389.524C622.912 393.721 613.827 407.001 625.527 411.061C637.228 415.052 633.442 403.974 632.341 399.364C631.24 394.753 633.098 391.382 635.438 391.038C637.709 390.694 637.572 400.602 642.803 400.121Z" fill="#232D82"/>
<path d="M759.671 287.891C757.95 287.891 756.298 287.065 755.335 285.482L723.055 234.977C721.541 232.569 722.229 229.403 724.638 227.821C727.047 226.307 730.213 226.995 731.796 229.403L764.076 279.909C765.59 282.317 764.902 285.482 762.493 287.065C761.529 287.684 760.565 287.891 759.671 287.891Z" fill="#D5D7E9"/>
<path d="M775.637 305.638C777.84 303.574 780.249 301.166 782.107 293.872C783.965 286.578 762.01 270.133 759.188 274.193C756.779 277.564 757.467 279.629 757.467 279.629C755.884 278.528 751.067 275.775 753.2 288.23C755.403 301.166 764.281 305.914 764.281 305.914C764.281 305.914 771.439 305.845 775.637 305.638Z" fill="#FFCEC0"/>
<path d="M804.198 352.977C802.478 352.977 800.826 352.152 799.862 350.638L766.138 298.894C764.555 296.486 765.243 293.321 767.652 291.738C770.061 290.155 773.227 290.843 774.81 293.252L808.534 344.996C810.117 347.404 809.429 350.569 807.02 352.152C806.125 352.702 805.162 352.977 804.198 352.977Z" fill="#D5D7E9"/>
<path d="M700.479 252.599C734.575 252.599 762.216 224.965 762.216 190.877C762.216 156.79 734.575 129.156 700.479 129.156C666.383 129.156 638.742 156.79 638.742 190.877C638.742 224.965 666.383 252.599 700.479 252.599Z" fill="#D5D7E9"/>
<path d="M724.288 238.924C750.854 225.763 761.718 193.564 748.553 167.006C735.389 140.447 703.182 129.586 676.617 142.746C650.051 155.907 639.187 188.106 652.351 214.665C665.516 241.224 697.723 252.085 724.288 238.924Z" fill="white"/>
<path d="M727.804 180.143L719.752 218.194L681.691 210.144C677.63 209.318 673.914 206.91 671.505 203.194C666.687 195.763 668.752 185.786 676.185 180.9C679.144 178.973 682.448 178.148 685.683 178.285L694.217 179.042L696.97 170.923C698.14 167.895 700.274 165.212 703.165 163.285C710.598 158.469 720.577 160.533 725.464 167.964C727.942 171.749 728.63 176.084 727.804 180.143Z" fill="#232D82"/>
<path d="M984.06 298L994 299.681L985.873 371L976 369.319L984.06 298Z" fill="#BDC0DA"/>
<path d="M1049.9 284.115C1077.79 256.225 1077.79 211.006 1049.9 183.116C1022 155.225 976.769 155.225 948.872 183.116C920.975 211.006 920.975 256.225 948.872 284.115C976.769 312.005 1022 312.005 1049.9 284.115Z" fill="#BDC0DA"/>
<path d="M1044.16 278.735C1068.89 254.013 1068.89 213.932 1044.16 189.211C1019.43 164.489 979.341 164.489 954.613 189.211C929.886 213.932 929.886 254.013 954.613 278.735C979.341 303.456 1019.43 303.456 1044.16 278.735Z" fill="white"/>
<path d="M873.783 463.555C895.05 462.317 919.965 447.248 936.139 435.344C945.155 428.738 968.212 387.316 970.965 371.283C976.54 372.247 982.527 371.902 982.527 371.902C982.665 381.949 963.325 435.137 951.556 453.234C941.576 468.578 911.086 492.386 891.333 494.519C871.649 496.583 873.783 463.555 873.783 463.555Z" fill="#F6F6FC"/>
<path d="M986.174 373.898C986.174 373.898 970.826 369.907 969.862 369.494C968.142 372.246 965.939 378.783 965.664 378.852C970.895 383.875 977.02 385.182 984.453 385.458C985.073 384.013 986.174 373.898 986.174 373.898Z" fill="#CED2F4"/>
<path d="M815.971 953.802C813.975 953.802 811.498 956.003 811.153 958.343C808.332 958.343 807.575 958.343 807.506 958.343C807.506 958.343 803.927 952.288 805.785 944.512C806.955 939.627 808.263 940.797 809.502 942.035C812.392 944.375 824.23 945.132 825.125 941.21C828.153 941.691 859.607 950.705 859.607 953.595C859.607 958.274 855.89 958.274 853.413 958.274C823.749 958.343 827.672 956.554 815.971 953.802Z" fill="#232D82"/>
<path d="M822.786 930.899C821.753 926.426 808.814 923.054 808.814 930.899C808.814 934.201 808.608 939.844 807.988 941.289C810.604 945.004 837.928 952.023 842.401 946.174C839.304 944.523 819.689 942.665 822.786 930.899Z" fill="#FFCEC0"/>
<path d="M925.405 953.802C923.409 953.802 920.931 956.003 920.587 958.343C917.765 958.343 917.008 958.343 916.939 958.343C916.939 958.343 913.36 952.288 915.219 944.512C916.389 939.627 917.696 940.797 918.935 942.035C921.826 944.375 933.664 945.132 934.559 941.21C937.587 941.691 969.04 950.705 969.04 953.595C969.04 958.274 965.324 958.274 962.846 958.274C933.182 958.343 937.105 956.554 925.405 953.802Z" fill="#232D82"/>
<path d="M930.151 930.899C929.119 926.426 916.18 923.054 916.18 930.899C916.18 934.201 917.969 939.844 917.35 941.289C919.965 945.004 947.289 952.023 951.763 946.174C948.734 944.523 931.321 940.05 930.151 930.899Z" fill="#FFCEC0"/>
<path d="M833.589 425.016C830.629 425.635 823.609 428.388 821.062 443.801C818.722 457.906 815.625 494.513 815.625 494.513C815.625 494.513 845.22 476.416 847.216 473.801C849.281 471.187 842.674 438.778 840.953 434.236C840.333 432.585 838.062 424.053 833.589 425.016Z" fill="#232D82"/>
<path d="M903.86 622.646C917.9 683.403 930.151 852.328 930.151 930.907C925.402 930.907 916.18 930.907 916.18 930.907C908.334 911.435 842.811 659.733 837.512 622.646C848.18 622.646 903.86 622.646 903.86 622.646Z" fill="url(#paint4_radial_14_670)"/>
<path d="M823.128 624.77C807.504 667.568 808.812 852.25 808.812 930.898C813.561 930.898 822.784 930.898 822.784 930.898C830.63 911.426 889.132 662.889 894.431 625.802C883.832 625.802 823.128 624.77 823.128 624.77Z" fill="url(#paint5_radial_14_670)"/>
<path d="M907.096 624.566C894.776 628.695 857.266 627.181 820.031 624.566C827.809 602.135 841.23 577.983 838.477 561.675C835.242 542.478 823.954 518.326 824.299 506.629C825.331 476.009 838.683 467.545 854.307 464.793C861.74 464.655 871.238 460.389 878.464 469.885C884.934 478.417 893.95 486.261 899.181 495.688C903.242 503.051 910.124 512.753 913.772 528.303C915.975 537.799 901.452 550.735 901.315 563.808C901.177 585.758 903.517 593.052 907.096 624.566Z" fill="#F6F6FC"/>
<path d="M832.9 625.394C842.123 604.545 845.908 579.154 847.56 565.393C849.694 547.571 842.192 527.823 838.131 514.199L825.742 516.883C828.839 529.543 835.929 546.952 838.406 561.608C841.159 577.916 827.738 602.136 819.961 624.499C824.297 624.843 828.633 625.118 832.9 625.394Z" fill="#D5D7E9"/>
<path d="M880.254 472.576C875.367 466.383 873.44 456.337 874.541 454.824C876.813 451.727 890.715 457.094 892.092 451.934C892.643 449.801 892.849 445.81 893.262 441.268C893.331 440.511 898.286 440.443 898.011 439.754C896.428 435.213 893.468 424.754 893.331 420.97C892.849 405.763 890.44 394.823 873.578 395.648C860.226 396.268 850.452 405.97 849.558 419.731C848.594 435.076 854.857 450.489 855.477 455.924C856.096 461.567 854.031 464.182 849.695 465.833C858.092 477.255 880.254 472.576 880.254 472.576Z" fill="#FFCEC0"/>
<path d="M840.335 423.504C838.133 422.196 834.898 422.816 833.04 424.398C831.25 425.981 834.141 436.096 836.687 436.508C839.165 436.921 843.157 436.371 843.776 433.481C844.327 430.66 840.335 423.504 840.335 423.504Z" fill="#232D82"/>
<path d="M858.095 392.133C847.702 396.949 840.407 405.413 839.237 415.803C837.86 428.189 853.002 456.606 854.86 452.271C856.719 448.143 861.812 448.487 864.496 443.739C867.249 438.785 863.532 435.413 868.212 429.771C869.658 428.051 873.65 423.785 879.638 423.166C888.654 422.202 894.366 411.812 894.435 407.133C894.71 393.096 875.302 384.151 858.095 392.133Z" fill="#232D82"/>
<path d="M830.495 637.914C838.341 650.575 862.017 659.658 865.665 654.153C871.102 645.896 850.11 637.983 850.11 637.983C859.058 639.359 862.981 639.291 863.049 637.295C860.778 635.093 846.738 633.992 839.167 628.9C830.151 625.322 826.159 630.896 830.495 637.914Z" fill="#FFCEC0"/>
<path d="M836.136 472.84C812.253 497.06 766.553 547.015 769.375 560.983C773.849 582.933 830.217 639.838 830.217 639.838C835.861 633.232 841.023 629.586 841.023 629.586C828.84 613.76 794.565 560.02 794.565 560.02C804.201 551.144 843.087 511.166 843.087 511.166L836.136 472.84Z" fill="#F6F6FC"/>
<path d="M829.393 641.008C829.393 641.008 841.919 628.967 842.883 628.278C841.025 625.251 836 618.576 836.069 618.232C833.247 620.228 818.725 631.168 818.656 631.719C819.826 633.233 829.393 641.008 829.393 641.008Z" fill="#CED2F4"/>
<path d="M974.544 377.822C976.746 378.372 979.224 378.923 984.523 377.134C989.823 375.345 991.406 355.046 987.69 354.909C984.592 354.771 983.56 356.01 983.56 356.01C983.629 354.565 983.422 350.436 976.471 356.767C969.244 363.303 969.795 370.735 969.795 370.735C969.795 370.735 972.754 375.276 974.544 377.822Z" fill="#FFCEC0"/>
<path d="M974.957 373.965C978.742 372.245 982.459 372.727 985.074 375.341C984.111 380.571 976.746 436.65 976.746 436.65L966.629 435.274C966.629 435.274 973.787 382.566 974.957 373.965Z" fill="#BDC0DA"/>
<path d="M972.203 232.362C972.478 230.641 973.235 229.197 974.405 228.096C975.025 227.476 975.162 226.513 974.68 225.756C973.923 224.449 973.579 222.866 973.786 221.215C974.336 217.43 977.778 214.747 981.563 215.228C983.972 215.572 987.757 216.123 991.68 217.086C990.786 214.953 988.927 205.526 991.336 199.058C993.883 192.384 998.357 194.173 998.219 197.201C998.15 198.99 998.081 203.737 998.494 206.146C998.701 207.315 1001.04 212.82 1004.34 214.747C1004.96 215.022 1005.58 215.366 1006 215.71C1010.47 219.15 1012.81 223.279 1018.25 227.683C1021.62 228.99 1025.2 230.091 1028.64 230.573L1024.1 262.362C1014.53 260.986 1002.62 266.697 990.029 264.839C990.029 264.839 984.729 264.082 979.016 262.293C973.855 260.711 970.413 259.472 970.138 255.757C970 254.036 970.551 252.11 971.652 250.94C972.272 250.321 972.34 249.357 971.859 248.601C971.033 247.293 970.551 245.642 970.757 243.99C970.895 242.27 971.583 240.619 972.753 239.518C973.442 238.899 973.579 237.866 973.097 237.109C972.272 235.733 971.927 234.082 972.203 232.362Z" fill="#D5D7E9"/>
<path d="M962.083 1031.24L942.812 1035.16C941.298 1035.43 940.059 1036.53 939.577 1037.98L933.314 1056.63C932.832 1058.07 933.176 1059.72 934.14 1060.82L947.217 1075.55C948.249 1076.72 949.763 1077.2 951.277 1076.93L970.549 1073C972.063 1072.73 973.302 1071.63 973.783 1070.18L980.047 1051.54C980.528 1050.09 980.184 1048.44 979.221 1047.34L966.213 1032.61C965.111 1031.44 963.597 1030.96 962.083 1031.24Z" fill="#FAFAFF"/>
<path opacity="0.8" d="M693.934 5.43841L702.193 34.8884C703.088 38.0536 707.08 39.0857 709.42 36.7463L730.825 14.8652C733.165 12.5257 731.995 8.46599 728.829 7.70909L699.165 0.140162C695.93 -0.68554 693.04 2.27322 693.934 5.43841Z" fill="#F05023"/>
<path opacity="0.8" d="M37.3367 610.195L16.4137 632.558C14.1424 634.966 15.3813 638.957 18.6161 639.714L48.4177 646.663C51.6525 647.42 54.4744 644.393 53.5108 641.227L44.6323 611.915C43.6687 608.75 39.608 607.787 37.3367 610.195Z" fill="#D70F82"/>
<defs>
<radialGradient id="paint0_radial_14_670" cx="0" cy="0" r="1" gradientUnits="userSpaceOnUse" gradientTransform="translate(295 856) rotate(-66.9954) scale(252.044 810.556)">
<stop stop-color="#7E7EEF"/>
<stop offset="1" stop-color="#232D82"/>
</radialGradient>
<radialGradient id="paint1_radial_14_670" cx="0" cy="0" r="1" gradientUnits="userSpaceOnUse" gradientTransform="translate(507 834.5) rotate(-44.5304) scale(258.81 832.282)">
<stop stop-color="#7E7EEF"/>
<stop offset="1" stop-color="#232D82"/>
</radialGradient>
<linearGradient id="paint2_linear_14_670" x1="555.5" y1="499" x2="665.285" y2="391.439" gradientUnits="userSpaceOnUse">
<stop stop-color="#232D82"/>
<stop offset="0.908677" stop-color="#D70F82"/>
<stop offset="1" stop-color="#F05023"/>
</linearGradient>
<linearGradient id="paint3_linear_14_670" x1="576.184" y1="601.051" x2="811.667" y2="490.983" gradientUnits="userSpaceOnUse">
<stop stop-color="#232D82"/>
<stop offset="0.659588" stop-color="#D70F82"/>
<stop offset="1" stop-color="#F05023"/>
</linearGradient>
<radialGradient id="paint4_radial_14_670" cx="0" cy="0" r="1" gradientUnits="userSpaceOnUse" gradientTransform="translate(859.233 717.872) scale(75.3719 250.803)">
<stop stop-color="#232D82"/>
<stop offset="1" stop-color="#232D82"/>
</radialGradient>
<radialGradient id="paint5_radial_14_670" cx="0" cy="0" r="1" gradientUnits="userSpaceOnUse" gradientTransform="translate(828.867 719.337) scale(69.6821 249.068)">
<stop stop-color="#5652CC"/>
<stop offset="1" stop-color="#232D82"/>
</radialGradient>
</defs>
</svg>
