<svg xmlns="http://www.w3.org/2000/svg" width="452" height="450" viewBox="0 0 452 450" fill="none"><g clip-path="url(#clip0_1_7348)"><path d="M285.116 357.37C284.922 355.064 282.569 353.065 278.571 351.453C282.907 349.067 285.309 346.488 285.116 343.973C284.503 336.364 260.402 332.092 231.272 334.446C202.157 336.799 179.04 344.86 179.653 352.485C179.846 354.79 182.2 356.789 186.198 358.401C181.861 360.787 179.459 363.367 179.653 365.882C179.846 368.187 182.2 370.186 186.198 371.798C181.861 374.184 179.459 376.763 179.653 379.278C179.846 381.583 182.2 383.582 186.198 385.194C181.861 387.58 179.459 390.16 179.653 392.674C179.927 396.044 184.795 398.752 192.662 400.525C192.565 403.008 192.614 405.732 192.856 408.747C194 422.772 209.766 433.767 230.643 433.767C251.504 433.767 269.575 418.774 269.769 404.701C269.817 401.251 269.672 398.22 269.366 395.528C279.344 392.191 285.422 388.128 285.116 384.179C284.922 381.873 282.569 379.874 278.571 378.262C282.907 375.876 285.309 373.297 285.116 370.782C284.922 368.477 282.569 366.478 278.571 364.866C282.923 362.448 285.325 359.885 285.116 357.37Z" fill="black"></path><path d="M217.809 403.523C209.169 403.523 201.253 402.895 194.708 401.637C194.321 401.573 194.079 401.202 194.16 400.815C194.224 400.428 194.595 400.186 194.982 400.267C205.219 402.234 218.873 402.653 233.463 401.476C245.392 400.509 256.548 398.59 265.737 395.914C266.108 395.801 266.495 396.011 266.608 396.382C266.72 396.753 266.511 397.14 266.14 397.252C256.87 399.961 245.618 401.895 233.592 402.862C228.143 403.298 222.855 403.523 217.809 403.523Z" fill="#30D55F"></path><path d="M217.954 390.127C206.717 390.127 196.674 389.063 189.597 387.047C189.226 386.935 189.017 386.548 189.113 386.177C189.226 385.806 189.613 385.597 189.984 385.693C200.076 388.563 216.326 389.466 233.462 388.079C250.405 386.709 266.204 383.275 275.731 378.874C276.086 378.713 276.505 378.858 276.666 379.213C276.827 379.567 276.682 379.986 276.328 380.148C266.655 384.613 250.679 388.095 233.575 389.466C228.223 389.917 222.967 390.127 217.954 390.127Z" fill="#30D55F"></path><path d="M217.809 376.747C205.67 376.747 195.062 375.505 187.921 373.152C187.55 373.039 187.357 372.636 187.47 372.265C187.582 371.894 187.985 371.701 188.356 371.814C198.303 375.086 215.165 376.166 233.446 374.699C250.39 373.329 266.188 369.895 275.716 365.494C276.07 365.333 276.489 365.478 276.651 365.833C276.812 366.187 276.667 366.607 276.312 366.768C266.639 371.233 250.664 374.715 233.559 376.086C228.143 376.537 222.839 376.747 217.809 376.747Z" fill="#30D55F"></path><path d="M217.906 363.366C208.282 363.366 199.528 362.592 192.725 361.077C192.354 360.997 192.113 360.626 192.193 360.239C192.274 359.868 192.645 359.626 193.032 359.707C203.268 361.98 218.003 362.576 233.463 361.319C250.261 359.965 265.979 356.563 275.522 352.227C275.877 352.065 276.296 352.227 276.441 352.581C276.603 352.936 276.441 353.355 276.087 353.5C266.398 357.901 250.503 361.351 233.56 362.721C228.207 363.157 222.936 363.366 217.906 363.366Z" fill="#30D55F"></path><path d="M160.113 289.823C156.583 277.297 150.57 265.593 142.477 255.388C125.147 233.544 96.8546 189.099 93.3725 128.452C88.3266 40.2544 166.562 -3.91701 237.945 2.07998C309.329 8.07697 379.777 61.2277 372.071 143.299C367.332 193.79 339.072 232.094 318.018 254.083C304.654 268.043 295.126 285.164 289.967 303.783C283.648 326.578 268.623 355 232.899 356.725C186.68 358.965 167.48 315.89 160.113 289.823Z" fill="#91B3FA"></path><path d="M244.698 339.136L269.67 176.67C270.186 173.316 271.83 171.059 273.362 171.64C274.877 172.22 275.699 175.396 275.183 178.765C275.167 178.862 275.151 178.959 275.135 179.055L246.681 340.007C246.472 341.216 245.859 341.99 245.311 341.716C244.795 341.458 244.521 340.313 244.698 339.136Z" fill="#01A65A"></path><path d="M218.778 340.426L193.806 177.96C193.29 174.606 191.646 172.35 190.114 172.93C188.599 173.51 187.777 176.686 188.293 180.055C188.309 180.152 188.325 180.249 188.341 180.345L216.795 341.297C217.004 342.506 217.617 343.28 218.165 343.006C218.681 342.748 218.955 341.603 218.778 340.426Z" fill="#01A65A"></path><path opacity="0.7" d="M269.51 162.725C268.881 161.709 267.414 161.322 266.238 161.87L252.325 168.367L247.505 154.616C247.247 153.891 246.651 153.262 245.812 152.907C244.216 152.246 242.298 152.843 241.54 154.229L241.508 154.277L230.062 175.138L219.455 145.443L219.439 145.395C219.181 144.669 218.632 144.025 217.826 143.589C216.053 142.622 213.699 143.073 212.571 144.621L196.579 166.642C195.934 167.545 196.16 168.754 197.143 169.415C198.207 170.124 199.723 169.963 200.545 169.044L214.618 153.342L227.289 181.586L227.306 181.602C227.515 182.054 227.886 182.441 228.418 182.699C229.611 183.263 231.094 182.876 231.739 181.844L243.975 162.209L248.585 172.139L248.634 172.22C248.666 172.285 248.698 172.365 248.746 172.43C249.375 173.445 250.842 173.832 252.019 173.284L268.527 165.562C269.704 165.014 270.139 163.74 269.51 162.725Z" fill="white"></path><path d="M8.39875 436.088C8.39875 436.088 6.43199 439.2 5.93224 447.873C5.88388 448.679 6.52872 449.372 7.33476 449.372H22.7303C23.3429 449.372 23.7942 448.759 23.6008 448.179C22.698 445.503 19.9736 438.99 13.8799 435.282L8.39875 436.088Z" fill="#91B3FA"></path><path d="M7.72266 430.204L8.59319 437.506C8.67379 438.135 9.15742 438.635 9.78614 438.715C10.6244 438.812 11.8496 438.877 13.0426 438.683C14.1227 438.506 14.8965 437.539 14.8965 436.442V429.397L7.72266 430.204Z" fill="#FFB17D"></path><path d="M46.4922 435.298C46.4922 435.298 43.542 439.876 43.6065 446.163C43.6226 447.647 44.8639 448.823 46.3471 448.823H70.2544C71.3668 448.823 71.8343 447.389 70.9154 446.744C66.3854 443.568 57.5028 437.635 51.0705 435.298H46.4922Z" fill="#91B3FA"></path><path d="M44.0254 427.399L45.8793 436.411C46.0889 437.426 47.0722 438.103 48.0717 437.878C48.6843 437.749 49.4098 437.475 50.1675 436.991C50.8929 436.54 51.2637 435.669 51.1186 434.815L49.2002 423.885L44.0254 427.399Z" fill="#FFB17D"></path><path d="M11.1395 302.01C11.1395 302.01 4.67502 307.7 3.46595 314.552C2.25688 321.403 6.91583 432.751 6.91583 432.751C6.91583 432.751 13.3803 433.831 16.7012 431.816C16.7012 431.816 20.6509 359.545 23.6494 342.844C23.6494 342.844 39.3834 417.71 43.7522 431.235C43.7522 431.235 49.9749 431.993 51.9739 430.816C51.9739 430.816 49.2011 322.258 44.0262 304.992L11.1395 302.01Z" fill="black"></path><path d="M23.4562 340.507C23.1499 340.507 22.8598 340.297 22.7791 339.975L20.1031 329.722L14.4124 326.062C14.09 325.853 13.9932 325.417 14.2028 325.095C14.4124 324.773 14.8476 324.676 15.1701 324.885L21.1026 328.69C21.2477 328.787 21.3605 328.932 21.4089 329.109L24.1494 339.636C24.2462 340.007 24.0205 340.394 23.6497 340.491C23.5691 340.491 23.5207 340.507 23.4562 340.507Z" fill="black"></path><path d="M61.422 226.145C34.2743 228.805 28.2773 235.608 28.2773 235.608L44.8336 253.567C44.8336 253.567 71.0301 248.263 87.2155 230.304C82.9918 227.144 79.7838 223.404 77.6236 220.422C73.1258 223.324 67.7575 225.532 61.422 226.145Z" fill="white"></path><path d="M96.1446 179.249C95.9511 178.394 94.742 178.378 94.5325 179.216L92.4529 187.116C92.0498 188.647 92.1304 190.259 92.6624 191.742L94.6292 195.757C95.3708 197.756 95.2095 199.98 94.1939 201.85C91.7758 206.348 86.3914 214.715 77.6055 220.405C79.7657 223.388 82.9899 227.128 87.1974 230.288C93.1299 223.694 97.7244 215.424 99.1914 205.058C100.658 204.301 101.432 202.656 101.061 201.044L96.1446 179.249Z" fill="#FFB17D"></path><path d="M42.4943 205.333L38.0449 226.371C38.0449 226.371 48.4268 231.078 55.7296 229.111L56.5195 210.782L42.4943 205.333Z" fill="#FFB17D"></path><path d="M53.6024 189.518C53.8281 189.743 63.146 209.024 63.146 209.024L52.0226 214.118L40.4961 197.159C40.4961 197.159 49.7334 185.729 53.6024 189.518Z" fill="#FFB17D"></path><path d="M45.396 199.158L50.7804 208.557C50.8449 208.67 50.9255 208.782 51.0383 208.879C51.6509 209.476 53.8756 211.378 55.6811 208.976C57.3094 206.8 58.8408 204.817 60.4691 204.22C61.1945 203.946 62.0167 204.285 62.3552 204.978C63.1935 206.735 65.0313 210.717 66.0953 214.409C66.3048 215.166 65.9018 215.94 65.1764 216.23C62.9839 217.085 58.2927 218.729 54.2141 219.18C53.666 219.245 53.1179 219.003 52.7955 218.552C51.2479 216.327 46.4922 209.589 44.8801 207.912C43.3647 206.332 40.463 206.929 39.2539 207.251C38.867 207.364 38.4479 207.299 38.0932 207.09C36.8519 206.348 34.3854 204.333 36.7229 200.948C37.2065 200.238 37.0131 199.271 36.3038 198.804C34.869 197.869 33.1763 196.063 34.7562 193.145C36.3683 190.179 39.1894 190.098 40.9788 190.405C41.7043 190.534 42.3975 190.098 42.6554 189.421C42.8005 189.034 43.1229 188.696 43.7678 188.631C44.6383 188.551 45.2348 187.696 45.0574 186.842C44.7189 185.198 44.9446 182.989 47.6529 181.57C52.457 179.055 56.5355 183.392 57.5189 187.019C58.5023 190.63 53.134 193.065 49.797 193.419C47.2499 193.693 45.8312 196.514 45.3154 197.852C45.1219 198.288 45.1703 198.755 45.396 199.158Z" fill="black"></path><path d="M46.8782 211.314C46.8782 211.314 44.8954 205.091 42.1871 205.268C39.4787 205.446 37.3024 208.09 40.575 211.185C44.6697 215.038 46.8782 211.314 46.8782 211.314Z" fill="#FFB17D"></path><path d="M225.323 171.817C220.809 176.122 213.409 180.329 202.108 179.201C180.635 177.024 178.346 157.099 180.684 146.685C182.65 137.899 201.044 124.535 217.149 132.772C220.567 134.514 224.42 131.531 223.743 127.582L215.618 80.3149L163.724 90.7452C159.211 91.648 155.374 87.1986 156.647 82.4751C158.034 77.3164 159.049 70.4489 158.292 62.2917C156.551 43.4302 139.914 37.8846 125.066 42.0277C112.283 45.5904 99.7243 69.2076 117.377 88.1175C120.827 91.8253 118.957 98.2092 114.185 99.1764L70.5293 107.962L80.1374 163.886C90.5999 143.928 111.202 144.718 121.987 160.791C132.805 176.944 129.177 194.129 111.783 198.772C102.884 201.141 96.2744 198.756 91.9379 195.87C89.6649 194.371 86.8921 196.37 87.3757 199.175L95.1299 244.313L138.27 237.156C143.057 236.366 146.926 241.847 144.621 246.361C142.638 250.278 141.332 255.018 141.993 260.338C143.912 275.733 157.115 288.614 171.737 287.953C186.471 287.292 199.255 270.252 194.532 255.904C192.291 249.101 188.535 242.911 185.198 238.284C182.409 234.431 184.424 228.934 188.873 228.192L240.67 219.584L232.948 174.639C232.335 170.85 227.999 169.27 225.323 171.817Z" fill="white"></path><path d="M72.3676 236.317C61.0991 227.886 42.3343 226.564 31.5977 226.58C26.8904 226.58 22.8763 229.933 22.0541 234.56C19.6682 247.973 12.9136 282.971 11.4788 289.049C10.302 294.03 9.01229 298.915 8.174 301.962C7.67425 303.783 8.73823 305.67 10.576 306.169C20.0874 308.781 36.6758 310.683 43.3821 311.393C44.8653 311.554 46.0582 310.232 45.8003 308.781C45.5746 307.54 45.6874 306.266 46.1388 305.089L62.953 260.466C81.0407 274.411 94.4855 273.524 103.949 268.027C101.289 263.078 99.209 258.016 97.7097 252.825C82.282 252.986 72.3676 236.317 72.3676 236.317Z" fill="white"></path><path d="M121.907 245.522L118.553 242.411C110.912 250.004 103.867 252.761 97.709 252.825C99.2082 258 101.272 263.078 103.948 268.027C116.393 260.789 121.907 245.522 121.907 245.522Z" fill="#FFB17D"></path><path d="M120.02 245.942L135.335 243.765L147.909 233.4C145.668 232.513 134.771 237.156 134.771 237.156C134.771 237.156 122.567 237.527 119.343 238.107C116.667 238.591 117.747 242.363 118.198 243.62C118.295 243.878 118.359 244.039 118.359 244.039L120.02 245.942Z" fill="#FFB17D"></path><path d="M386.083 169.029C386.083 169.029 356.678 206.671 390.226 244.974L402.832 243.797C402.832 243.797 378.554 204.817 389.371 173.736L407.233 175.042L417.115 168.609L386.083 169.029Z" fill="#FFB17D"></path><path d="M436.67 112.492C432.881 114.83 428.254 117.022 422.951 118.264C393.611 125.163 395.368 87.4887 409.731 71.4C417.083 63.1622 426.465 65.0161 433.913 68.8529C439.394 71.6579 445.891 67.402 445.52 61.1309L442.473 9.64062L394.384 13.8482C389 14.3157 386.001 20.4578 388.758 25.149C391.934 30.5495 394.981 37.9812 395.513 46.9929C396.69 66.9183 370.928 73.6408 362.61 74.8982C355.098 76.0428 324.419 64.21 340.895 29.5177C343.297 24.4719 339.589 18.749 334.253 19.2165L281.086 23.8754L284.101 74.8821C284.359 79.138 279.91 81.8463 276.508 79.5894C260.419 68.9657 239.381 80.9436 236.254 90.0197C232.546 100.772 232.627 122.149 255.099 126.969C266.916 129.516 275.267 125.921 280.538 121.891C283.682 119.505 288.083 121.697 288.325 125.76L291.194 174.252L346.038 171.301C351.486 171.011 354.324 164.498 350.938 160.033C346.102 153.649 340.669 145.895 339.106 141.349C336.107 132.643 339.976 114.153 360.498 109.929C381.214 105.673 397.222 119.037 397.496 137.996C397.625 146.524 395.996 153.649 394.175 158.904C392.53 163.644 396.254 168.577 401.171 168.319L451.436 165.611L448.68 118.812C448.309 112.766 441.764 109.349 436.67 112.492Z" fill="white"></path><path d="M402.188 353.355C402.188 353.355 426.014 405.28 438.508 426.786C438.508 426.786 440.991 440.311 438.508 444.567L436.396 445.502L446.278 445.212C446.278 445.212 447.149 427.011 446.472 425.996C445.795 424.98 444.424 425.045 444.424 425.045C444.424 425.045 440.185 391.497 427.933 384.339L416.052 343.408L402.188 353.355Z" fill="#FFB17D"></path><path d="M432.188 448.066C432.171 448.307 439.893 448.195 444.101 448.114C445.649 448.082 446.97 447.002 447.309 445.486L450.485 428.833C450.791 427.254 449.775 425.722 448.212 425.351L446.438 424.948C446.438 424.948 443.907 428.414 444.714 431.671C445.52 434.927 446.213 443.374 444.214 444.358C442.199 445.341 436.427 445.519 436.427 445.519C436.427 445.519 432.316 445.922 432.188 448.066Z" fill="#91B3FA"></path><path d="M379.616 448.372C378.843 448.824 379.165 450.017 380.052 450C387.08 449.936 402.814 449.71 404.201 449.13C406.006 448.372 403.54 441.892 400.944 439.699L386.629 444.374L379.616 448.372Z" fill="#91B3FA"></path><path d="M375.168 350.051C375.168 350.051 390.563 424.53 394.916 439.055L384.615 445.519C384.615 445.519 389.774 444.648 393.61 444.358C397.431 444.084 400.961 439.683 400.961 439.683L399.72 437.716C399.72 437.716 395.867 363.641 396.802 355.226L375.168 350.051Z" fill="#FFB17D"></path><path d="M336.946 176.315C336.946 176.315 334.818 215.054 370.09 234.85L361.595 254.211C361.595 254.211 329.675 234.899 330.836 182.231C330.868 180.716 330.336 179.233 329.337 178.088L322.55 170.221C319.97 167.223 319.003 163.144 319.954 159.307L320.841 155.729C321.147 154.536 322.501 153.955 323.565 154.584L324.275 155.003C326.532 156.309 328.321 158.308 329.385 160.694L332.722 168.142C333.528 169.947 333.786 170.576 334.705 170.705C335.93 170.898 337.091 170.028 337.365 168.819L337.607 167.803C340.621 170.35 340.492 173.171 336.946 176.315Z" fill="#FFB17D"></path><path d="M368.865 231.965C374.766 233.609 394.756 238.864 407.233 238.639L399.576 281.875L400.188 288.936L375.201 288.823C375.201 288.823 368.172 272.493 362.61 264.352C361.014 261.998 362.207 259.193 363.11 256.501L361.869 255.662C360.595 254.824 360.047 253.228 360.515 251.777L366.592 233.158C366.931 232.223 367.914 231.691 368.865 231.965Z" fill="white"></path><path d="M373.201 285.131L373.685 289.403C373.685 289.403 366.624 310.554 377.215 359.932C377.215 359.932 400.155 366.429 419.001 350.889C419.001 350.889 413.681 304.283 412.23 302.107C404.991 291.289 400.171 288.936 400.171 288.936L399.962 284.261C399.978 284.261 379.81 287.92 373.201 285.131Z" fill="black"></path><path d="M382.987 235.447C382.907 235.334 388.21 219.438 388.21 219.438L395.803 220.132L398.77 238.171C398.77 238.155 386.856 240.557 382.987 235.447Z" fill="url(#paint0_linear_1_7348)"></path><path d="M393.981 194.354C393.482 194.677 377.748 201.173 381.133 217.504C381.327 218.471 381.971 219.293 382.874 219.68C385.179 220.712 390.145 222.469 396.093 221.873C404.331 221.034 409.732 206.655 409.506 202.479C409.264 198.288 398.995 191.243 393.981 194.354Z" fill="#F5CFB5"></path><path d="M398.769 188.019C398.35 188.067 389.676 191.098 393.981 197.385C398.285 203.672 399.897 207.364 397.866 210.137C396.012 212.651 391.901 211.217 392.256 216.456C392.32 217.504 391.869 218.519 390.998 219.116C387.129 221.728 377.682 229.804 387.049 241.298C387.806 242.233 387.968 243.523 387.371 244.571C384.631 249.488 378.875 263.884 399.704 271.864C420.29 279.747 427.722 266.302 429.802 260.918C430.253 259.757 431.397 259.047 432.639 259.096C434.896 259.209 438.104 258.822 437.959 255.807C437.862 253.969 436.717 252.325 435.363 251.003C434.025 249.697 434.283 247.408 435.911 246.489C437.137 245.796 438.233 244.7 438.684 243.007C439.925 238.38 437.443 224.565 424.191 222.211C423.079 222.018 421.934 220.986 421.773 219.874C421.773 219.857 421.773 219.841 421.773 219.825C421.596 218.745 421.967 217.649 422.837 217.004C424.949 215.456 427.674 212.329 425.465 207.315C423.514 202.866 419.758 201.367 416.969 200.899C415.341 200.625 414.261 199.078 414.599 197.449C415.567 193 414.745 185.923 398.769 188.019Z" fill="black"></path></g><defs><linearGradient id="paint0_linear_1_7348" x1="382.985" y1="229.075" x2="398.767" y2="229.075" gradientUnits="userSpaceOnUse"><stop stop-color="#FEBBBA"></stop><stop offset="1" stop-color="#FF928E"></stop></linearGradient><clipPath id="clip0_1_7348"><rect width="451.451" height="450" fill="white"></rect></clipPath></defs></svg>